<svg width="361" height="89" viewBox="-20 -15 401 97" fill="none" xmlns="http://www.w3.org/2000/svg">
<path d="M0 0H67V33.5C67 52.0015 52.0015 67 33.5 67V67C14.9985 67 0 52.0015 0 33.5V0Z" fill="black"/>
<path d="M75 0H108.5C127.002 0 142 14.9985 142 33.5V33.5C142 52.0015 127.002 67 108.5 67H75V0Z" fill="black"/>
<path d="M294 0H327.5C346.002 0 361 14.9985 361 33.5V67H294V0Z" fill="black"/>
<path d="M180.5 0L213.842 66.75H147.158L180.5 0Z" fill="black"/>
<path d="M252.342 0L285.684 66.75H219L252.342 0Z" fill="black"/>
</svg>
